<svg id="visual" viewBox="0 0 900 600" width="900" height="600" xmlns="http://www.w3.org/2000/svg" xmlns:xlink="http://www.w3.org/1999/xlink" version="1.1"><rect x="0" y="0" width="900" height="600" fill="#001220"></rect><path d="M0 431L21.5 427.8C43 424.7 86 418.3 128.8 412.8C171.7 407.3 214.3 402.7 257.2 410.7C300 418.7 343 439.3 385.8 450.5C428.7 461.7 471.3 463.3 514.2 419.2C557 375 600 285 642.8 272C685.7 259 728.3 323 771.2 366.7C814 410.3 857 433.7 878.5 445.3L900 457L900 0L878.5 0C857 0 814 0 771.2 0C728.3 0 685.7 0 642.8 0C600 0 557 0 514.2 0C471.3 0 428.7 0 385.8 0C343 0 300 0 257.2 0C214.3 0 171.7 0 128.8 0C86 0 43 0 21.5 0L0 0Z" fill="#c62368"></path><path d="M0 139L21.5 137C43 135 86 131 128.8 147.2C171.7 163.3 214.3 199.7 257.2 225.8C300 252 343 268 385.8 244C428.7 220 471.3 156 514.2 140.7C557 125.3 600 158.7 642.8 177.5C685.7 196.3 728.3 200.7 771.2 208.5C814 216.3 857 227.7 878.5 233.3L900 239L900 0L878.5 0C857 0 814 0 771.2 0C728.3 0 685.7 0 642.8 0C600 0 557 0 514.2 0C471.3 0 428.7 0 385.8 0C343 0 300 0 257.2 0C214.3 0 171.7 0 128.8 0C86 0 43 0 21.5 0L0 0Z" fill="#e34c67"></path><path d="M0 77L21.5 74.8C43 72.7 86 68.3 128.8 77.7C171.7 87 214.3 110 257.2 121.7C300 133.3 343 133.7 385.8 122.5C428.7 111.3 471.3 88.7 514.2 83.7C557 78.7 600 91.3 642.8 100.5C685.7 109.7 728.3 115.3 771.2 109.8C814 104.3 857 87.7 878.5 79.3L900 71L900 0L878.5 0C857 0 814 0 771.2 0C728.3 0 685.7 0 642.8 0C600 0 557 0 514.2 0C471.3 0 428.7 0 385.8 0C343 0 300 0 257.2 0C214.3 0 171.7 0 128.8 0C86 0 43 0 21.5 0L0 0Z" fill="#fa7268"></path></svg>